<?xml version="1.0" standalone="no"?>
<!DOCTYPE svg PUBLIC "-//W3C//DTD SVG 20010904//EN"
 "http://www.w3.org/TR/2001/REC-SVG-20010904/DTD/svg10.dtd">
<svg version="1.0" xmlns="http://www.w3.org/2000/svg"
 width="600.000000pt" height="600.000000pt" viewBox="0 0 600.000000 600.000000"
 preserveAspectRatio="xMidYMid meet">
<metadata>
Created by potrace 1.11, written by Peter Selinger 2001-2013
</metadata>
<g transform="translate(0.000000,600.000000) scale(0.100000,-0.100000)"
fill="#000000" stroke="none">
<path d="M2715 5989 c-191 -20 -485 -81 -650 -136 -326 -108 -674 -297 -945
-513 -135 -108 -352 -325 -460 -460 -259 -324 -468 -741 -566 -1128 -39 -158
-69 -332 -85 -497 -16 -166 -6 -514 19 -680 84 -547 291 -1027 624 -1447 104
-132 344 -372 476 -476 1097 -870 2647 -870 3744 0 132 104 372 344 476 476
423 534 651 1188 652 1868 0 265 -28 490 -94 755 -96 384 -307 805 -566 1129
-108 135 -325 352 -460 460 -265 212 -596 394 -925 507 -168 58 -472 121 -684
143 -119 12 -438 11 -556 -1z m451 -89 c137 -11 256 -29 394 -61 103 -23 238
-58 265 -69 11 -4 40 -13 65 -19 58 -16 166 -59 210 -86 19 -12 54 -29 78 -38
23 -9 72 -35 108 -57 36 -22 85 -49 107 -60 54 -26 98 -56 156 -105 26 -22 83
-66 127 -97 44 -31 114 -92 155 -135 40 -43 95 -98 120 -123 25 -25 60 -66 77
-91 16 -25 59 -79 94 -120 69 -81 159 -210 162 -234 1 -8 10 -23 21 -35 10
-11 16 -20 13 -20 -3 0 18 -47 48 -105 29 -58 51 -105 48 -105 -2 0 2 -12 9
-27 8 -16 14 -48 14 -73 0 -26 5 -55 11 -67 6 -11 9 -23 5 -26 -3 -4 -1 -12 4
-19 13 -16 60 -161 74 -230 6 -29 15 -58 20 -63 4 -6 12 -38 18 -70 5 -33 17
-98 25 -145 8 -47 17 -128 20 -181 3 -52 6 -100 7 -105 2 -5 0 -31 -4 -59 -4
-27 -9 -67 -12 -89 -2 -21 -8 -48 -12 -60 -4 -11 -8 -28 -8 -36 -1 -8 -7 -28
-13 -43 -7 -16 -12 -37 -12 -48 0 -10 -4 -19 -10 -19 -5 0 -10 -11 -10 -25 0
-14 -7 -28 -15 -31 -8 -4 -15 -14 -15 -24 0 -11 -4 -22 -10 -25 -5 -3 -10 -18
-10 -33 0 -21 -2 -24 -10 -12 -7 10 -10 11 -11 3 -4 -38 -19 -62 -35 -56 -8 3
-17 -3 -21 -13 -8 -22 -60 -74 -73 -74 -6 0 -10 -6 -10 -14 0 -8 -11 -17 -25
-20 -14 -4 -25 -13 -25 -22 0 -8 -4 -13 -9 -10 -5 3 -11 -3 -14 -14 -3 -11
-12 -20 -19 -20 -8 0 -20 -11 -26 -25 -13 -29 -32 -33 -33 -7 0 9 -5 2 -10
-15 -5 -18 -16 -33 -24 -33 -8 0 -18 -12 -21 -26 -4 -14 -16 -29 -28 -34 -17
-6 -29 -30 -51 -95 -19 -58 -34 -89 -45 -92 -10 -3 -23 -23 -31 -45 -7 -21
-20 -45 -29 -51 -9 -7 -23 -23 -30 -37 -7 -14 -19 -32 -27 -40 -8 -8 -23 -30
-34 -48 -10 -18 -28 -36 -39 -40 -19 -7 -49 -45 -125 -160 -20 -29 -42 -52
-52 -52 -10 0 -33 -21 -52 -45 -18 -25 -38 -45 -43 -45 -5 0 -6 -5 -2 -11 5
-8 1 -8 -14 0 -32 17 -96 13 -227 -13 -147 -30 -559 -90 -755 -110 -399 -41
-678 -41 -1080 -1 -191 20 -604 80 -755 111 -153 31 -201 31 -233 2 l-25 -23
6 23 c3 13 1 22 -6 22 -12 0 -76 70 -77 83 0 4 -7 7 -14 7 -8 0 -28 17 -43 37
-15 21 -39 50 -53 64 -14 14 -50 65 -80 112 -34 54 -62 87 -72 87 -10 0 -26
17 -38 40 -11 22 -27 40 -34 40 -8 0 -20 17 -27 38 -6 20 -15 42 -19 47 -4 6
-10 22 -14 38 -3 15 -12 27 -20 27 -7 0 -21 27 -32 63 -12 40 -30 74 -51 94
-18 18 -35 33 -38 33 -4 0 -26 20 -49 45 -24 25 -49 45 -55 45 -6 0 -13 11
-17 25 -3 14 -10 25 -15 25 -4 0 -29 20 -56 45 -26 25 -53 45 -60 45 -7 0 -13
9 -13 19 0 12 -7 18 -17 17 -12 -1 -22 13 -33 44 -15 44 -20 53 -60 98 -12 13
-20 36 -20 56 0 19 -6 41 -14 49 -8 7 -16 29 -17 48 -2 19 -7 36 -11 39 -4 3
-11 39 -14 80 -4 41 -12 79 -18 83 -8 6 -8 10 0 13 7 3 9 40 7 106 -2 89 4
150 31 298 2 8 6 33 10 55 14 73 87 318 117 390 12 27 22 72 24 100 2 54 6 65
71 201 24 50 44 98 44 106 0 8 8 23 19 32 10 9 21 29 24 44 3 15 29 59 56 97
114 159 132 183 151 200 11 10 20 24 20 32 0 24 290 305 380 368 47 33 93 68
103 78 29 29 140 102 198 131 30 14 72 37 94 51 112 69 374 185 420 185 8 0
23 4 33 10 20 12 264 74 342 88 271 48 439 59 656 42z m-1719 -4312 c-2 -13
-4 -3 -4 22 0 25 2 35 4 23 2 -13 2 -33 0 -45z m3110 10 c-2 -13 -4 -5 -4 17
-1 22 1 32 4 23 2 -10 2 -28 0 -40z m-587 -773 c0 -2 -10 -9 -22 -15 -22 -11
-22 -10 -4 4 21 17 26 19 26 11z m-230 -115 c-8 -5 -19 -10 -25 -10 -5 0 -3 5
5 10 8 5 20 10 25 10 6 0 3 -5 -5 -10z m-1410 -20 c8 -5 11 -10 5 -10 -5 0
-17 5 -25 10 -8 5 -10 10 -5 10 6 0 17 -5 25 -10z m1360 0 c-8 -5 -19 -10 -25
-10 -5 0 -3 5 5 10 8 5 20 10 25 10 6 0 3 -5 -5 -10z m-845 -110 c3 -6 -1 -7
-9 -4 -18 7 -21 14 -7 14 6 0 13 -4 16 -10z m350 -1 c-68 -14 -248 -21 -295
-11 -36 7 -14 9 103 10 82 0 151 3 155 6 3 3 21 5 41 5 l36 -1 -40 -9z"/>
<path d="M2023 4239 c-69 -13 -168 -66 -227 -120 -60 -55 -133 -158 -165 -232
-11 -26 -23 -47 -25 -47 -3 0 -46 26 -95 59 -108 71 -191 101 -279 101 -331 0
-598 -323 -537 -650 9 -47 18 -115 20 -151 8 -116 41 -233 91 -320 25 -43 52
-79 59 -79 7 0 30 -19 51 -42 42 -47 107 -98 122 -98 6 0 12 -3 14 -7 5 -12
59 -48 103 -69 22 -10 64 -33 94 -51 30 -18 62 -33 71 -33 8 0 43 -13 77 -30
33 -16 91 -37 128 -45 38 -9 114 -32 169 -51 56 -19 134 -39 175 -44 67 -9 79
-8 118 11 51 25 177 157 204 213 10 23 48 77 84 121 35 44 64 85 65 91 0 6 6
17 14 23 24 20 179 345 196 410 5 20 16 56 25 81 9 25 18 63 19 85 2 22 17 84
35 138 67 211 25 404 -125 566 -123 133 -319 202 -481 170z"/>
<path d="M3801 4239 c-135 -23 -287 -125 -371 -251 -64 -96 -85 -173 -84 -308
1 -108 3 -122 43 -235 51 -144 129 -310 199 -423 29 -46 52 -90 52 -98 0 -9 5
-12 12 -8 7 4 8 3 4 -4 -12 -20 76 -169 154 -259 20 -22 45 -58 55 -79 31 -59
81 -123 138 -173 29 -25 55 -50 58 -54 10 -14 87 -27 132 -22 42 4 79 14 211
56 38 11 74 22 80 23 6 2 28 6 49 11 21 4 73 21 115 37 42 17 97 37 122 45 48
17 63 24 115 53 18 10 36 16 39 13 3 -3 8 2 12 11 3 9 13 16 21 16 8 0 26 9
40 20 14 11 31 20 37 20 6 0 19 14 28 30 9 17 24 30 33 30 24 0 130 104 174
171 34 51 74 146 69 166 0 4 4 21 10 36 17 41 15 196 -4 279 -9 39 -19 66 -23
60 -3 -5 -7 20 -7 58 -6 288 -261 540 -546 540 -88 0 -171 -30 -279 -101 -49
-33 -92 -59 -95 -59 -2 0 -14 21 -25 47 -56 131 -173 260 -284 313 -99 47
-172 57 -284 39z"/>
</g>
</svg>
